<svg width="46" height="46" viewBox="0 0 46 46" fill="none" xmlns="http://www.w3.org/2000/svg">
<path d="M46 23C46 35.7026 35.7026 46 23 46C10.2974 46 0 35.7026 0 23C0 10.2974 10.2974 0 23 0C35.7026 0 46 10.2974 46 23Z" fill="#5EB701"/>
<g clip-path="url(#clip0)">
<path d="M34.3472 10H11.6533V10.771H34.3472V10Z" fill="#FFFCF3"/>
<path d="M12.5508 11.1051V11.8761H13.714V15.7952H14.9385V11.8761H22.3875V22.6954H23.612V11.8761H31.0609V22.6954H32.2855V11.8761H33.4487V11.1051H12.5508Z" fill="#FFFCF3"/>
<path d="M35.1769 32.5095V29.4092C35.8758 29.2507 36.3769 28.8292 36.3769 28.3353C36.3769 27.8414 35.8758 27.4198 35.1769 27.2615V24.9054H33.9524V27.2614C33.2536 27.4198 32.7524 27.8414 32.7524 28.3353C32.7524 28.8292 33.2536 29.2507 33.9524 29.4091V32.5094H29.3946V29.4091C30.0934 29.2507 30.5946 28.8292 30.5946 28.3353C30.5946 27.8414 30.0934 27.4198 29.3946 27.2614V24.1612H37V23.3903H9V24.1613H10.8231V27.2615C10.1243 27.4199 9.62312 27.8415 9.62312 28.3354C9.62312 28.8293 10.1243 29.2508 10.8231 29.4092V32.5095H9V32.895C9 34.1578 10.6316 35.1851 12.6373 35.1851H33.3628C35.3684 35.1851 37.0001 34.1578 37.0001 32.8949V32.5094H35.1769V32.5095ZM34.5646 27.9652C34.8887 27.9652 35.1523 28.1312 35.1523 28.3353C35.1523 28.5393 34.8887 28.7053 34.5646 28.7053C34.2405 28.7053 33.9769 28.5393 33.9769 28.3353C33.9769 28.1313 34.2406 27.9652 34.5646 27.9652ZM28.7823 27.9652C29.1064 27.9652 29.3701 28.1313 29.3701 28.3353C29.3701 28.5393 29.1064 28.7053 28.7823 28.7053C28.4583 28.7053 28.1946 28.5393 28.1946 28.3353C28.1946 28.1312 28.4582 27.9652 28.7823 27.9652ZM23.6123 29.4092C24.3111 29.2507 24.8123 28.8292 24.8123 28.3353C24.8123 27.8414 24.3111 27.4198 23.6123 27.2615V24.1612H28.1701V27.2614C27.4712 27.4198 26.9701 27.8414 26.9701 28.3353C26.9701 28.8292 27.4712 29.2507 28.1701 29.4091V32.5094H23.6123V29.4092ZM23 27.9652C23.3241 27.9652 23.5877 28.1312 23.5877 28.3353C23.5877 28.5393 23.3241 28.7053 23 28.7053C22.6759 28.7054 22.4123 28.5393 22.4123 28.3353C22.4123 28.1312 22.6759 27.9652 23 27.9652ZM17.8299 29.4092C18.5287 29.2507 19.0299 28.8292 19.0299 28.3353C19.0299 27.8414 18.5287 27.4198 17.8299 27.2615V24.1612H22.3878V27.2614C21.689 27.4198 21.1878 27.8414 21.1878 28.3353C21.1878 28.8292 21.689 29.2507 22.3878 29.4091V32.5094H17.8299V29.4092ZM17.2177 27.9652C17.5418 27.9652 17.8055 28.1313 17.8055 28.3353C17.8055 28.5393 17.5418 28.7053 17.2177 28.7053C16.8937 28.7053 16.63 28.5393 16.63 28.3353C16.63 28.1312 16.8937 27.9652 17.2177 27.9652ZM12.0477 29.4092C12.7465 29.2508 13.2477 28.8293 13.2477 28.3354C13.2477 27.8415 12.7465 27.4199 12.0477 27.2615V24.1613H16.6055V27.2615C15.9066 27.4199 15.4055 27.8415 15.4055 28.3354C15.4055 28.8293 15.9066 29.2508 16.6055 29.4092V32.5095H12.0477V29.4092ZM11.4354 27.9652C11.7595 27.9652 12.0231 28.1312 12.0231 28.3353C12.0231 28.5393 11.7595 28.7053 11.4354 28.7053C11.1113 28.7054 10.8477 28.5393 10.8477 28.3353C10.8477 28.1312 11.1113 27.9652 11.4354 27.9652ZM33.3627 34.4142H12.6373C11.5184 34.4142 10.5749 33.9321 10.3032 33.2805H35.6968C35.4251 33.932 34.4817 34.4142 33.3627 34.4142Z" fill="#FFFCF3"/>
<path d="M14.9383 16.6947H13.7139V17.4657H14.9383V16.6947Z" fill="#FFFCF3"/>
<path d="M14.9383 18.3909H13.7139V22.6955H14.9383V18.3909Z" fill="#FFFCF3"/>
<path d="M19.0369 14.8195L15.9932 17.5565L16.9963 17.9988L20.04 15.2618L19.0369 14.8195Z" fill="#FFFCF3"/>
<path d="M20.2137 16.1873L17.1699 18.9243L18.1731 19.3666L21.2168 16.6296L20.2137 16.1873Z" fill="#FFFCF3"/>
<path d="M27.8279 14.8189L24.7842 17.5559L25.7873 17.9982L28.8311 15.2612L27.8279 14.8189Z" fill="#FFFCF3"/>
<path d="M29.0066 16.1879L25.9629 18.9249L26.966 19.3672L30.0098 16.6302L29.0066 16.1879Z" fill="#FFFCF3"/>
</g>
<defs>
<clipPath id="clip0">
<rect width="40" height="25.1852" fill="white" transform="translate(3 10)"/>
</clipPath>
</defs>
</svg>
