<svg width="22" height="22" viewBox="0 0 22 22" fill="none" xmlns="http://www.w3.org/2000/svg">
<path opacity="0.4" d="M22 12.375V15.125H0V12.375C0 11.6457 0.289731 10.9462 0.805456 10.4305C1.32118 9.91473 2.02065 9.625 2.75 9.625H19.25C19.9793 9.625 20.6788 9.91473 21.1945 10.4305C21.7103 10.9462 22 11.6457 22 12.375Z" fill="#5EB701"/>
<path d="M0 15.125V19.9375C0 20.1198 0.0724328 20.2947 0.201364 20.4236C0.330295 20.5526 0.505164 20.625 0.6875 20.625H2.0625C2.24484 20.625 2.4197 20.5526 2.54864 20.4236C2.67757 20.2947 2.75 20.1198 2.75 19.9375V17.875H19.25V19.9375C19.25 20.1198 19.3224 20.2947 19.4514 20.4236C19.5803 20.5526 19.7552 20.625 19.9375 20.625H21.3125C21.4948 20.625 21.6697 20.5526 21.7986 20.4236C21.9276 20.2947 22 20.1198 22 19.9375V15.125H0ZM2.75 9.625V6.875C2.75 6.51033 2.89487 6.16059 3.15273 5.90273C3.41059 5.64487 3.76033 5.5 4.125 5.5H8.9375C9.30217 5.5 9.65191 5.64487 9.90977 5.90273C10.1676 6.16059 10.3125 6.51033 10.3125 6.875V9.625H11.6875V6.875C11.6875 6.51033 11.8324 6.16059 12.0902 5.90273C12.3481 5.64487 12.6978 5.5 13.0625 5.5H17.875C18.2397 5.5 18.5894 5.64487 18.8473 5.90273C19.1051 6.16059 19.25 6.51033 19.25 6.875V9.625C19.7333 9.63367 20.2064 9.76496 20.625 10.0066V2.75C20.625 2.38533 20.4801 2.03559 20.2223 1.77773C19.9644 1.51987 19.6147 1.375 19.25 1.375H2.75C2.38533 1.375 2.03559 1.51987 1.77773 1.77773C1.51987 2.03559 1.375 2.38533 1.375 2.75V10.0066C1.7937 9.76515 2.26678 9.63387 2.75 9.625Z" fill="#5EB701"/>
</svg>
