<svg width="46" height="46" viewBox="0 0 46 46" fill="none" xmlns="http://www.w3.org/2000/svg">
<path d="M46 23C46 35.7026 35.7026 46 23 46C10.2974 46 0 35.7026 0 23C0 10.2974 10.2974 0 23 0C35.7026 0 46 10.2974 46 23Z" fill="#5EB701"/>
<g clip-path="url(#clip0)">
<path d="M31.7909 27.5869L34.6142 26.8328C34.8392 26.7748 34.9731 26.5428 34.9142 26.316L34.6945 25.4986C34.6356 25.2719 34.3999 25.14 34.1749 25.198L29.7177 26.3898L24.6927 23.5L29.7177 20.6102L34.1749 21.802C34.3999 21.86 34.6356 21.7281 34.6945 21.5014L34.9142 20.684C34.9731 20.4572 34.8392 20.2252 34.6142 20.1672L31.7909 19.4131L34.7856 17.6887C34.9892 17.5727 35.0588 17.3143 34.9409 17.1139L34.5177 16.3809C34.3999 16.1805 34.1427 16.1119 33.9392 16.2279L30.9445 17.9523L31.6999 15.1416C31.7588 14.9148 31.6249 14.6828 31.3999 14.6248L30.5802 14.4086C30.3552 14.3506 30.1195 14.4824 30.0606 14.7092L28.8659 19.1494L23.8409 22.0393V16.2543L27.1088 13.0059C27.2749 12.8424 27.2749 12.5734 27.1088 12.41L26.5088 11.8141C26.3427 11.6506 26.0749 11.6506 25.9088 11.8141L23.8409 13.8707V10.4219C23.8409 10.1898 23.6534 10 23.4177 10H22.5713C22.3356 10 22.1481 10.1898 22.1481 10.4219V13.8707L20.0802 11.8141C19.9142 11.6506 19.6463 11.6506 19.4802 11.8141L18.8802 12.41C18.7142 12.5734 18.7142 12.8424 18.8802 13.0059L22.1427 16.2596V22.0445L17.1177 19.1547L15.9338 14.7039C15.8749 14.4771 15.6392 14.3453 15.4142 14.4033L14.5945 14.6195C14.3695 14.6775 14.2356 14.9096 14.2945 15.1363L15.0499 17.9471L12.0552 16.2227C11.8517 16.1066 11.5945 16.1752 11.4767 16.3756L11.0534 17.1086C10.9356 17.309 11.0052 17.5674 11.2088 17.6834L14.2034 19.4078L11.3856 20.1672C11.1606 20.2252 11.0267 20.4572 11.0856 20.684L11.3052 21.5014C11.3642 21.7281 11.5999 21.86 11.8249 21.802L16.282 20.6102L21.307 23.5L16.282 26.3898L11.8249 25.198C11.5999 25.14 11.3642 25.2719 11.3052 25.4986L11.0856 26.316C11.0267 26.5428 11.1606 26.7748 11.3856 26.8328L14.2088 27.5869L11.2142 29.3061C11.0106 29.4221 10.9409 29.6805 11.0588 29.8809L11.482 30.6139C11.5999 30.8143 11.857 30.8828 12.0606 30.7668L15.0552 29.0424L14.2999 31.8531C14.2409 32.0799 14.3749 32.3119 14.5999 32.3699L15.4195 32.5861C15.6445 32.6441 15.8802 32.5123 15.9392 32.2855L17.1338 27.8453L22.1588 24.9555V30.7404L18.8909 33.9941C18.7249 34.1576 18.7249 34.4266 18.8909 34.59L19.4909 35.1859C19.657 35.3494 19.9249 35.3494 20.0909 35.1859L22.1588 33.1293V36.5781C22.1588 36.8102 22.3463 37 22.582 37H23.4284C23.6642 37 23.8517 36.8102 23.8517 36.5781V33.1293L25.9195 35.1859C26.0856 35.3494 26.3534 35.3494 26.5195 35.1859L27.1195 34.59C27.2856 34.4266 27.2856 34.1576 27.1195 33.9941L23.857 30.7404V24.9607L28.882 27.8506L30.0767 32.2908C30.1356 32.5176 30.3713 32.6494 30.5963 32.5914L31.4159 32.3752C31.6409 32.3172 31.7749 32.0852 31.7159 31.8584L30.9606 29.0477L33.9552 30.7721C34.1588 30.8881 34.4159 30.8195 34.5338 30.6191L34.957 29.8861C35.0749 29.6857 35.0052 29.4273 34.8017 29.3113L31.7909 27.5869Z" fill="#FFFCF3"/>
</g>
<defs>
<clipPath id="clip0">
<rect width="24" height="27" fill="white" transform="translate(11 10)"/>
</clipPath>
</defs>
</svg>
