<svg width="46" height="46" viewBox="0 0 46 46" fill="none" xmlns="http://www.w3.org/2000/svg">
<path d="M46 23C46 35.7026 35.7026 46 23 46C10.2974 46 0 35.7026 0 23C0 10.2974 10.2974 0 23 0C35.7026 0 46 10.2974 46 23Z" fill="#5EB701"/>
<g clip-path="url(#clip0)">
<path d="M34.9545 20.4678V18.8223C34.9545 16.2295 32.8677 14.125 30.2955 14.125H14.7652C12.1929 14.125 10.1061 16.2295 10.1061 18.8223V20.4678C8.33464 20.834 7 22.4111 7 24.3057C7 25.5312 7.58724 26.6885 8.55303 27.4209V31.3076C8.55303 32.1719 9.24704 32.875 10.1061 32.875H13.2121C14.0517 32.875 14.7312 32.1572 14.7554 31.3125H30.3052C30.3294 32.1572 31.0089 32.875 31.8485 32.875H34.9545C35.8136 32.875 36.5076 32.1719 36.5076 31.3076V27.4209C37.4734 26.6836 38.0606 25.5312 38.0606 24.3057C38.0606 22.416 36.726 20.834 34.9545 20.4678ZM13.2121 31.3076H10.1061V26.5518C9.27616 26.0635 8.55303 25.5215 8.55303 24.3057C8.55303 23.0117 9.59647 21.957 10.8826 21.957H12.4356C12.8627 21.957 13.2121 22.3086 13.2121 22.7383V31.3076ZM30.2955 29.75H14.7652V25.0869H30.2955V29.75ZM30.2955 22.7383V23.5H14.7652V22.7383C14.7652 21.4443 13.7217 20.3896 12.4356 20.3896H11.6591V18.8223C11.6591 17.0937 13.052 15.6924 14.7652 15.6924H30.2955C32.0086 15.6924 33.4015 17.0986 33.4015 18.8223V20.3896H32.625C31.3389 20.3896 30.2955 21.4443 30.2955 22.7383ZM34.9545 26.5518V31.3076H31.8485V22.7383C31.8485 22.3086 32.1979 21.957 32.625 21.957H34.178C35.4641 21.957 36.5076 23.0117 36.5076 24.3057C36.5076 25.4727 35.833 26.0342 34.9545 26.5518Z" fill="#FFFCF3"/>
</g>
<defs>
<clipPath id="clip0">
<rect width="31.0606" height="25" fill="white" transform="translate(7 11)"/>
</clipPath>
</defs>
</svg>
