<svg width="20" height="23" viewBox="0 0 20 23" fill="none" xmlns="http://www.w3.org/2000/svg">
<g clip-path="url(#clip0)">
<path d="M17.8572 15.914V7.08598C19.0875 6.76523 20 5.65072 20 4.3125C20 2.72451 18.721 1.4375 17.1429 1.4375C15.813 1.4375 14.7054 2.35615 14.3866 3.59375H5.6134C5.29465 2.35615 4.18706 1.4375 2.85715 1.4375C1.27902 1.4375 0 2.72451 0 4.3125C0 5.65072 0.912501 6.76523 2.14286 7.08598V15.9145C0.912501 16.2348 0 17.3493 0 18.6875C0 20.2755 1.27902 21.5625 2.85715 21.5625C4.18706 21.5625 5.29465 20.6443 5.6134 19.4062H14.3871C14.7058 20.6443 15.8134 21.5625 17.1433 21.5625C18.7215 21.5625 20.0005 20.2755 20.0005 18.6875C20 17.3493 19.0875 16.2348 17.8572 15.914ZM14.3866 17.9688H5.6134C5.35447 16.9621 4.57233 16.175 3.57143 15.914V7.08598C4.57188 6.82543 5.35403 6.0384 5.6134 5.03125H14.3871C14.646 6.03795 15.4281 6.82498 16.429 7.08598V15.9145C15.4281 16.175 14.646 16.9621 14.3866 17.9688ZM17.1429 2.875C17.9304 2.875 18.5715 3.52008 18.5715 4.3125C18.5715 5.10492 17.9304 5.75 17.1429 5.75C16.3554 5.75 15.7143 5.10492 15.7143 4.3125C15.7143 3.52008 16.3554 2.875 17.1429 2.875ZM1.42857 4.3125C1.42857 3.52008 2.06965 2.875 2.85715 2.875C3.64465 2.875 4.28572 3.52008 4.28572 4.3125C4.28572 5.10492 3.64465 5.75 2.85715 5.75C2.06965 5.75 1.42857 5.10492 1.42857 4.3125ZM2.85715 20.125C2.06965 20.125 1.42857 19.4799 1.42857 18.6875C1.42857 17.8951 2.06965 17.25 2.85715 17.25C3.64465 17.25 4.28572 17.8951 4.28572 18.6875C4.28572 19.4799 3.64465 20.125 2.85715 20.125ZM17.1429 20.125C16.3554 20.125 15.7143 19.4799 15.7143 18.6875C15.7143 17.8951 16.3554 17.25 17.1429 17.25C17.9304 17.25 18.5715 17.8951 18.5715 18.6875C18.5715 19.4799 17.9304 20.125 17.1429 20.125Z" fill="#5EB701"/>
</g>
<defs>
<clipPath id="clip0">
<rect width="20" height="23" fill="white"/>
</clipPath>
</defs>
</svg>
