<svg width="46" height="46" viewBox="0 0 46 46" fill="none" xmlns="http://www.w3.org/2000/svg">
<path d="M46 23C46 35.7026 35.7026 46 23 46C10.2974 46 0 35.7026 0 23C0 10.2974 10.2974 0 23 0C35.7026 0 46 10.2974 46 23Z" fill="#5EB701"/>
<g clip-path="url(#clip0)">
<path d="M23.5001 26C21.3601 26 19.6251 27.6791 19.6251 29.75C19.6251 31.8214 21.3606 33.5 23.5001 33.5C25.6405 33.5 27.3751 31.82 27.3751 29.75C27.3751 27.6791 25.64 26 23.5001 26ZM23.5001 32C22.2179 32 21.1751 30.9908 21.1751 29.75C21.1751 28.5092 22.2179 27.5 23.5001 27.5C24.7822 27.5 25.8251 28.5092 25.8251 29.75C25.8251 30.9908 24.7822 32 23.5001 32ZM38.8165 18.4039C30.2435 10.5359 16.7648 10.5284 8.18365 18.4039C7.94437 18.6238 7.93759 18.9903 8.17106 19.2158L8.44667 19.4825C8.66997 19.6986 9.03131 19.7047 9.26042 19.4942C17.2521 12.1634 29.7805 12.193 37.7402 19.4942C37.9693 19.7042 38.3307 19.6981 38.554 19.4825L38.8296 19.2158C39.0626 18.9903 39.0558 18.6238 38.8165 18.4039ZM33.4792 23.6708C27.7955 18.7733 19.1969 18.7799 13.521 23.6708C13.2764 23.8817 13.2633 24.2478 13.4895 24.477L13.7574 24.7484C13.9734 24.9674 14.3299 24.9809 14.5643 24.7799C19.6585 20.4027 27.3518 20.4106 32.4368 24.7799C32.6707 24.9809 33.0272 24.9678 33.2438 24.7484L33.5116 24.477C33.7369 24.2478 33.7238 23.8817 33.4792 23.6708Z" fill="#FFFCF3"/>
</g>
<defs>
<clipPath id="clip0">
<rect width="31" height="24" fill="white" transform="translate(8 11)"/>
</clipPath>
</defs>
</svg>
