<svg width="90" height="90" viewBox="0 0 90 90" fill="none" xmlns="http://www.w3.org/2000/svg">
<g clip-path="url(#clip0)">
<path d="M51.6357 53.3217L51.9722 54.7108H56.5185L55.1712 52.0167L45.743 23.0154L31.6843 55.5101C33.3119 54.7246 34.5747 54.0933 35.4725 53.616C36.595 52.999 37.6684 52.4025 38.6925 51.8273C39.7166 51.2521 40.7338 50.6909 41.744 50.1435C42.7542 49.5966 43.7643 49.0353 44.7745 48.4601C45.7847 47.8849 46.8372 47.2884 47.9314 46.6709C48.3247 46.4467 48.8014 46.2643 49.3627 46.1241L51.6357 53.3217ZM39.3447 47.176L45.2797 33.5381L48.1 42.2936C47.7072 42.5178 47.1036 42.8549 46.2899 43.3038C45.4765 43.7527 44.6204 44.2299 43.7226 44.7351C42.8247 45.2401 41.9687 45.7239 41.1548 46.1872C40.341 46.65 39.738 46.9796 39.3447 47.176ZM35.8966 66.8753C35.5149 66.5965 35.1675 66.3975 34.7948 66.2676C34.4236 66.1396 34.0411 66.0706 33.6366 66.0544C32.8328 66.0176 31.9551 66.1658 31.1147 66.3633C30.2737 66.565 29.4757 66.8096 28.8774 67.0086C28.2834 67.2009 27.8955 67.3516 27.8955 67.3516C27.8955 67.3516 28.275 67.5661 28.8858 67.82C29.4958 68.0753 30.3417 68.3626 31.2626 68.5187C32.1787 68.6756 33.1781 68.6944 34.0493 68.4505C34.9153 68.2125 35.6518 67.6941 35.8966 66.8753ZM33.3285 63.2438C33.656 63.9595 34.1304 64.6582 34.7542 65.1138C35.066 65.3389 35.411 65.5105 35.7845 65.5795C36.1553 65.6518 36.5548 65.6317 36.9406 65.4737C36.9626 64.6166 36.7213 63.9401 36.3456 63.3456C35.9682 62.7567 35.4322 62.2475 34.8802 61.808C34.3272 61.3712 33.7619 61.006 33.334 60.7428C32.9076 60.484 32.616 60.3306 32.616 60.3306C32.6162 60.3306 32.6201 60.4225 32.6353 60.5845C32.6511 60.7428 32.6786 60.9718 32.7254 61.2479C32.8191 61.7953 33.0004 62.5303 33.3285 63.2438ZM27.2841 65.154C28.1259 65.1151 28.8712 64.7997 29.3925 64.1156C28.9753 63.3878 28.3411 62.9939 27.5824 62.7661C26.824 62.5396 25.9387 62.478 25.0687 62.4505C24.1996 62.4272 23.3399 62.4452 22.6926 62.4492C22.0295 62.4598 21.6128 62.468 21.6128 62.468C21.6128 62.468 21.6933 62.5538 21.8432 62.6965C21.9939 62.8317 22.2111 63.0315 22.4856 63.2504C23.0318 63.6899 23.8054 64.202 24.6581 64.5771C25.511 64.9556 26.4435 65.1936 27.2841 65.154ZM28.8852 61.9193C29.3617 62.5083 30.0301 62.8968 30.8581 62.8566C31.1952 62.0686 31.1375 61.3176 30.9104 60.6269C30.6815 59.9381 30.277 59.3062 29.8678 58.7556C29.4586 58.2054 29.039 57.737 28.7324 57.3994C28.5819 57.2292 28.453 57.0945 28.3624 57.0028C28.2772 56.909 28.2234 56.8587 28.2234 56.8587C28.2234 56.8587 28.1953 56.9445 28.154 57.0945C28.1128 57.248 28.0658 57.4651 28.022 57.7317C27.9319 58.2698 27.8925 59.004 28.0089 59.7745C28.1244 60.5403 28.4078 61.3264 28.8852 61.9193ZM18.5862 56.0425C17.9886 55.8591 17.6032 55.752 17.6032 55.752C17.6034 55.752 17.6397 55.849 17.7153 56.0099C17.7952 56.1693 17.9156 56.3958 18.0696 56.663C18.223 56.9297 18.4115 57.24 18.6294 57.5642C18.7388 57.7278 18.8556 57.8926 18.978 58.0593L19.0745 58.1874L19.1976 58.3442C19.28 58.4492 19.3653 58.5526 19.4498 58.6544C20.1474 59.4631 21.0082 60.0822 21.8535 60.3415C22.7008 60.6054 23.5214 60.519 24.2214 60.0078C24.0255 59.1883 23.5529 58.6295 22.916 58.1438C22.7601 58.0212 22.5854 57.9085 22.4121 57.7921C22.2374 57.6755 22.0503 57.5655 21.8604 57.4558C21.6728 57.3405 21.4787 57.2305 21.2778 57.1208C21.0915 57.0201 20.9045 56.9297 20.7154 56.842C19.9569 56.4942 19.1775 56.227 18.5862 56.0425ZM24.4265 57.4966C24.652 58.2027 25.1739 58.7843 25.9711 58.9632C26.5248 58.3026 26.7014 57.5803 26.7468 56.897C26.7854 56.2141 26.6952 55.5663 26.6197 55.0228C26.5936 54.7931 26.4992 54.4032 26.4105 54.1004C26.3218 53.788 26.2228 53.5054 26.1327 53.2695C26.044 53.0331 25.9573 52.8406 25.9001 52.7068C25.8487 52.5706 25.8163 52.495 25.8163 52.495C25.8163 52.495 25.76 52.5708 25.6685 52.7081C25.5736 52.8494 25.458 53.0458 25.3252 53.2917C25.0621 53.7827 24.744 54.4694 24.5247 55.2312C24.4684 55.4223 24.4189 55.6158 24.3781 55.8148C24.3411 55.9977 24.3129 56.1854 24.2964 56.3776C24.284 56.5673 24.293 56.7556 24.3101 56.9466C24.3296 57.1353 24.3735 57.3169 24.4265 57.4966ZM17.6715 53.1704C17.8083 53.3353 17.9699 53.4805 18.1335 53.6152C18.2959 53.75 18.4644 53.8739 18.6376 53.9817C19.333 54.4159 20.1033 54.5995 20.9423 54.3596C21.0125 53.9515 20.9807 53.5783 20.8714 53.2321C20.815 53.0604 20.7402 52.8944 20.6466 52.7341C20.5552 52.5735 20.4402 52.4219 20.3316 52.2673C19.8818 51.6574 19.1872 51.1289 18.485 50.6593C17.8042 50.1827 17.0868 49.7755 16.5386 49.4787C15.9783 49.1866 15.6253 49.0037 15.6253 49.0037C15.6254 49.0037 15.6418 49.1055 15.6859 49.2823C15.7362 49.4591 15.8124 49.7078 15.9156 50.0046C16.1242 50.5989 16.4134 51.3956 16.8969 52.1218C17.1287 52.4882 17.388 52.8494 17.6715 53.1704ZM22.207 52.8507C22.3702 53.1717 22.61 53.4564 22.9437 53.6843C23.7036 53.2595 24.139 52.623 24.3694 51.9323C24.4287 51.7594 24.4726 51.5825 24.5062 51.4035C24.5249 51.3145 24.5378 51.2254 24.5488 51.1355C24.5626 51.0451 24.5763 50.9534 24.5908 50.8615C24.6396 50.4963 24.6513 50.132 24.6396 49.7795C24.5922 49.0806 24.5482 48.4214 24.4567 47.9437C24.4148 47.7031 24.3686 47.5069 24.339 47.3696C24.3158 47.2329 24.2998 47.1558 24.2998 47.1558C24.3 47.1558 24.2296 47.2188 24.1128 47.3341C23.9918 47.4505 23.8405 47.6167 23.6623 47.8298C23.3061 48.2552 22.8624 48.8622 22.5 49.5678C22.1596 50.2678 21.9374 51.0566 21.943 51.8056C21.9403 51.9938 21.9725 52.1727 22.0173 52.3468C22.062 52.5237 22.1245 52.6914 22.207 52.8507ZM16.212 46.4375C16.3179 46.627 16.4292 46.8088 16.5579 46.9763C16.6914 47.143 16.8337 47.2985 16.9823 47.4385C17.5828 48.0053 18.304 48.3296 19.1728 48.2486C19.3227 47.8613 19.366 47.4921 19.3241 47.1337C19.3036 46.9541 19.2621 46.7778 19.2022 46.6036C19.148 46.4295 19.0874 46.2554 19.0049 46.0852C18.8447 45.7427 18.6232 45.409 18.3647 45.0814C18.232 44.9206 18.0998 44.7586 17.9692 44.599C17.8366 44.4389 17.6968 44.2836 17.5558 44.1314C16.9872 43.5203 16.3579 42.9589 15.9196 42.5414C15.4707 42.1266 15.1521 41.8628 15.1521 41.8628C15.1523 41.8626 15.1398 42.2856 15.1783 42.9228C15.2011 43.2404 15.2678 43.6109 15.3412 44.0061C15.3814 44.2038 15.4252 44.4081 15.4753 44.6144C15.527 44.8214 15.58 45.0319 15.6612 45.2375C15.8159 45.651 15.9966 46.0589 16.212 46.4375ZM21.2471 47.7956C22.0772 47.5168 22.6306 46.9803 22.9951 46.3651C23.0868 46.2098 23.1644 46.0516 23.2346 45.8875C23.3157 45.7226 23.3845 45.5564 23.4463 45.3876C23.5681 45.052 23.6541 44.709 23.7132 44.3753C23.7779 44.0429 23.8487 43.7193 23.8824 43.4211C23.9011 43.2692 23.9154 43.1264 23.9251 42.9904C23.9335 42.8557 23.9388 42.729 23.9566 42.6124C24.0083 42.1483 24.0021 41.8419 24.0021 41.8419C24.0021 41.8419 23.6802 42.0142 23.2207 42.3365C23.1067 42.4174 22.9829 42.508 22.8542 42.6058C22.7236 42.7068 22.5908 42.8155 22.4657 42.9328C22.2091 43.1685 21.945 43.4393 21.6947 43.7395C21.571 43.8895 21.4498 44.0456 21.335 44.2091C21.278 44.2902 21.2223 44.374 21.1706 44.4564C21.1225 44.5415 21.077 44.6266 21.0338 44.713C20.862 45.0565 20.7285 45.4191 20.657 45.783C20.6232 45.9638 20.5971 46.1453 20.6026 46.3237C20.6123 46.5019 20.6404 46.6781 20.6885 46.8483C20.7869 47.1913 20.9657 47.5143 21.2471 47.7956ZM18.2314 37.5727C18.0374 37.209 17.8269 36.8531 17.6247 36.5249C17.4143 36.1927 17.225 35.8915 17.0662 35.6379C16.7388 35.1258 16.5015 34.7936 16.5015 34.7936C16.5018 34.7936 16.3783 35.1957 16.2485 35.8194C16.199 36.1361 16.1536 36.5083 16.1247 36.9095C16.1075 37.111 16.0965 37.3182 16.0902 37.5313C16.0916 37.7455 16.1054 37.9641 16.1247 38.1844C16.1631 38.6239 16.2195 39.0662 16.3351 39.485C16.4645 39.9051 16.6302 40.3017 16.8433 40.6441C17.2552 41.3381 17.921 41.8178 18.7828 41.9371C18.8956 41.7656 18.981 41.5941 19.0436 41.4205C19.1048 41.2464 19.1638 41.0708 19.1892 40.8954C19.2484 40.5408 19.2209 40.1771 19.135 39.8079C19.0599 39.4408 18.9437 39.0662 18.78 38.6904C18.6185 38.3151 18.4162 37.9365 18.2314 37.5727ZM22.9223 40.8029C23.1831 40.5543 23.4038 40.2741 23.5894 39.9834C23.7945 39.6926 23.9746 39.3944 24.1189 39.0949C24.1947 38.9456 24.2524 38.7969 24.3232 38.6528C24.3942 38.5086 24.4595 38.3673 24.5164 38.23C24.6333 37.9581 24.716 37.7028 24.7936 37.4857C24.965 37.0534 25.0406 36.7613 25.0406 36.7613C25.0406 36.7613 24.6837 36.8451 24.1561 37.0394C23.6136 37.2289 22.9628 37.5493 22.3164 37.9968C22.1575 38.1094 21.9904 38.2287 21.8473 38.3594C21.7044 38.4879 21.566 38.6252 21.4367 38.7681C21.179 39.0554 20.9443 39.3684 20.7882 39.6994C20.6439 40.0329 20.5606 40.3828 20.562 40.7332C20.5649 40.9073 20.5778 41.0828 20.6349 41.2564C20.6926 41.4305 20.7758 41.6021 20.8845 41.7696C21.7586 41.6885 22.3865 41.2986 22.9223 40.8029ZM20.377 35.3372C20.4932 35.1904 20.5859 35.0344 20.6589 34.8721C20.7312 34.7087 20.7841 34.5383 20.8205 34.36C20.8564 34.1854 20.8714 34.0001 20.8901 33.8174C20.919 33.4468 20.8907 33.0543 20.8275 32.6517C20.7649 32.2496 20.6926 31.8501 20.5887 31.4475C20.3764 30.6433 20.1479 29.8866 19.9444 29.3088C19.7409 28.732 19.5983 28.363 19.5983 28.363C19.5986 28.363 19.542 28.4495 19.4527 28.6097C19.3675 28.7699 19.2498 29.0028 19.117 29.2879C18.8406 29.8524 18.5634 30.6598 18.3881 31.5068C18.3165 31.9366 18.2711 32.3788 18.2698 32.8071C18.2643 33.0191 18.2877 33.2364 18.3199 33.4431C18.3516 33.6513 18.3963 33.8527 18.4547 34.0455C18.5766 34.431 18.7408 34.7755 19.0028 35.0713C19.2607 35.365 19.5866 35.6037 19.9904 35.7682C20.1454 35.6325 20.2717 35.4894 20.377 35.3372ZM27.2511 32.2757C27.3254 32.162 27.3644 32.0968 27.3644 32.0968C27.3646 32.0968 27.2708 32.0968 27.1065 32.1027C26.9388 32.1081 26.7117 32.1257 26.4367 32.1593C26.1604 32.1935 25.8362 32.2442 25.4863 32.3217C25.3137 32.3606 25.1279 32.4044 24.9492 32.4578C24.7718 32.5139 24.5908 32.5737 24.4105 32.6463C24.0497 32.7879 23.6767 32.9566 23.3521 33.1681C23.0318 33.3817 22.7367 33.6289 22.4938 33.9066C22.3702 34.0439 22.2752 34.1955 22.1933 34.3514C22.1122 34.5079 22.0481 34.6719 22.0042 34.839C21.9594 35.0077 21.936 35.1824 21.9368 35.3607C21.9466 35.5418 21.9822 35.7271 22.0426 35.915C22.4733 35.9839 22.8714 35.9663 23.2373 35.8862C23.5991 35.8066 23.9539 35.6742 24.2661 35.498C24.423 35.4115 24.5729 35.3143 24.7146 35.2085C24.7862 35.1589 24.8542 35.1023 24.9222 35.0462C24.9911 34.9928 25.0626 34.9362 25.1307 34.8801C25.4038 34.6505 25.6457 34.4011 25.8609 34.1469C26.0928 33.8986 26.3005 33.6471 26.4745 33.4068C26.5185 33.3475 26.5612 33.2861 26.6018 33.2284C26.6458 33.1707 26.6864 33.1157 26.7289 33.0607C26.8094 32.9507 26.8836 32.8477 26.9497 32.751C27.0812 32.5582 27.1802 32.3921 27.2511 32.2757ZM22.7388 30.1418C23.1116 29.9581 23.3894 29.7151 23.6032 29.4294C23.8282 29.1534 23.9822 28.8265 24.0859 28.4682C24.3115 27.7622 24.3479 26.9222 24.3397 26.11C24.3349 25.9055 24.3253 25.7004 24.3136 25.5012C24.306 25.3037 24.2944 25.1114 24.2799 24.9245C24.2513 24.5486 24.2138 24.1988 24.1782 23.8992C24.115 23.3091 24.0475 22.9145 24.0475 22.9145C24.0475 22.9145 23.9787 22.9914 23.8568 23.1233C23.7366 23.2568 23.5673 23.449 23.3824 23.6989C23.1967 23.9473 22.978 24.2372 22.7758 24.5763C22.5764 24.9122 22.3653 25.2775 22.1939 25.67C22.0276 26.0668 21.8756 26.4737 21.782 26.8881C21.6927 27.3067 21.6473 27.7217 21.6672 28.1168C21.7196 28.9157 22.0413 29.6313 22.7388 30.1418ZM28.8281 29.7135C29.1073 29.5149 29.3739 29.313 29.6038 29.1128C29.8362 28.9141 30.0514 28.7293 30.222 28.5643C30.3914 28.3956 30.5376 28.261 30.6353 28.1628C30.7318 28.0645 30.7833 28.0074 30.7833 28.0074C30.7833 28.0074 30.4209 27.9289 29.8561 27.8739C29.5758 27.8477 29.2502 27.8343 28.8913 27.8354C28.5337 27.837 28.145 27.8605 27.7633 27.9209C26.9835 28.0319 26.1994 28.2899 25.6011 28.7229C25.311 28.9451 25.0654 29.2073 24.894 29.5106C24.7332 29.8193 24.6513 30.1739 24.6706 30.5621C25.4772 30.9044 26.2366 30.8739 26.9312 30.678C27.2841 30.5813 27.6182 30.4398 27.929 30.27C28.2481 30.105 28.5528 29.9154 28.8281 29.7135ZM61.0811 26.7033C60.8007 26.7161 60.5236 26.691 60.2507 26.6237C59.8897 26.5356 59.5656 26.3701 59.258 26.165C59.1047 26.063 58.9627 25.945 58.8292 25.8216C58.686 25.6994 58.5525 25.568 58.4276 25.4275C58.1771 25.1461 57.9422 24.8503 57.7275 24.5405C57.3462 23.9894 57.0018 23.4122 56.6771 22.8264C56.5719 22.6357 56.4677 22.444 56.3674 22.2512C56.3401 22.1989 56.3145 22.1444 56.2862 22.0926C56.2846 22.0894 56.283 22.0873 56.2819 22.0841C56.276 22.0691 56.2691 22.0531 56.2621 22.0387C56.2552 22.0259 56.2509 22.0109 56.2509 21.9949C56.2509 21.9447 56.2921 21.9036 56.3423 21.9036C56.3636 21.9036 56.385 21.9041 56.4085 21.9052C56.4704 21.9095 56.5334 21.918 56.6002 21.9249C56.8266 21.9586 57.0504 22.0002 57.2736 22.0531C57.9689 22.2171 58.6716 22.4707 59.3018 22.8087C60.0024 23.1842 60.7142 23.7032 61.1596 24.3665C61.3817 24.6821 61.5371 25.042 61.6092 25.4211C61.6696 25.741 61.6546 26.0641 61.5783 26.3786C62.5795 27.562 63.4842 28.8297 64.3135 30.1386C64.8155 30.93 65.2843 31.7428 65.7158 32.5748C67.6959 36.3967 68.8975 40.6833 68.6983 45.0114C68.5226 48.8268 67.3285 52.6078 65.6474 56.0188C63.8094 59.7476 61.0186 62.5224 57.3515 64.467C53.7272 66.3894 49.9967 68.1579 46.2019 69.72C48.3653 70.3728 50.6047 70.9588 52.8325 71.3215C53.2928 71.3964 52.3179 72.9686 51.9607 72.9105C50.7613 72.7153 49.5597 72.3518 48.4151 71.9486C47.1037 71.4867 45.8144 70.9488 44.5429 70.3867C42.1507 71.3265 39.7188 72.1816 37.2523 72.9054C37.0285 72.9711 36.4963 72.4691 36.3466 72.3272C36.2751 72.2593 35.3955 71.4352 35.8159 71.3665C38.1846 70.9794 40.5964 70.3375 42.8995 69.6447C41.5399 69.0177 40.19 68.3707 38.8339 67.7363C37.5954 67.157 36.3426 66.5774 35.0701 66.0767C32.3225 64.9956 29.53 63.7324 27.2191 61.8664C24.7348 59.8605 22.9851 57.2226 21.7562 54.3C20.2523 50.7234 19.1426 46.904 19.2973 42.9881C19.4327 39.5564 20.3337 36.1991 21.8179 33.1077C23.0398 30.5626 24.5752 28.1046 26.4198 25.9605C26.3469 25.6518 26.3335 25.3362 26.3928 25.0233C26.4649 24.6431 26.6195 24.2848 26.8415 23.9702C27.2883 23.3048 28 22.7858 28.7009 22.4098C29.3301 22.0723 30.0329 21.8187 30.7278 21.6553C30.9495 21.6029 31.1783 21.5565 31.4044 21.5282C31.466 21.5202 31.5278 21.5127 31.5981 21.5063C31.6178 21.5063 31.6376 21.5063 31.6573 21.5063C31.6899 21.5063 31.7179 21.5223 31.7351 21.5501C31.7522 21.5778 31.7537 21.6099 31.7415 21.6334C31.734 21.6515 31.7262 21.6697 31.7153 21.6932C31.6875 21.7455 31.6607 21.7989 31.6334 21.8518C31.5334 22.0451 31.4302 22.2368 31.3248 22.4275C31.0004 23.0133 30.656 23.5911 30.2753 24.1422C30.061 24.4524 29.8252 24.7483 29.5745 25.0297C29.4497 25.1696 29.3147 25.2994 29.175 25.4243C29.0379 25.5466 28.8959 25.6641 28.7427 25.7688C28.4345 25.9712 28.1123 26.1372 27.7523 26.2259C27.4893 26.291 27.2214 26.3151 26.9514 26.306C26.1674 27.2304 25.4467 28.2087 24.767 29.2116C22.1366 33.0938 20.2267 37.5963 19.9429 42.3171C19.7002 46.3559 20.6957 50.2089 22.2495 53.9081C23.0749 55.8736 24.0985 57.7827 25.513 59.3913C26.9363 61.0098 28.6631 62.2886 30.5466 63.3245C32.1671 64.2157 33.85 65.0176 35.5414 65.7642C37.4577 66.61 39.4071 67.3895 41.375 68.1072C42.391 68.4778 43.4132 68.8318 44.4414 69.167C46.6604 68.4569 48.8787 67.665 51.0257 66.7596C53.6247 65.6633 56.2376 64.5398 58.6305 63.033C61.2701 61.371 63.3581 59.129 64.7936 56.3591C66.6247 52.8242 67.9976 48.7773 68.0954 44.771C68.1845 41.1109 67.3499 37.46 65.8125 34.1453C64.5799 31.4891 63.0003 28.9221 61.0811 26.7033ZM56.7401 68.9155C57.6607 68.762 58.5061 68.4746 59.117 68.2192C59.7268 67.964 60.107 67.7503 60.107 67.7503C60.107 67.7503 59.7188 67.6002 59.1229 67.4065C58.5253 67.209 57.7285 66.9631 56.8864 66.7614C56.0448 66.5637 55.1701 66.417 54.3653 66.4525C53.9595 66.4679 53.5777 66.5363 53.2063 66.6641C52.8336 66.7955 52.4863 66.9925 52.1046 67.2726C52.3509 68.0906 53.0874 68.6093 53.9536 68.8471C54.8224 69.0915 55.8227 69.0721 56.7401 68.9155ZM52.2181 65.9773C52.5903 65.9076 52.9361 65.7383 53.2476 65.5132C53.8708 65.0549 54.3461 64.3573 54.6729 63.6425C55.0008 62.9282 55.1813 62.1934 55.2774 61.6445C55.3233 61.3699 55.3501 61.1406 55.3666 60.9826C55.381 60.8217 55.3853 60.7287 55.3853 60.7287C55.3853 60.7287 55.0927 60.8808 54.667 61.1406C54.2409 61.4027 53.6748 61.7692 53.1225 62.2061C52.5696 62.6442 52.0339 63.1547 51.6549 63.7437C51.2794 64.338 51.0392 65.0141 51.0627 65.8703C51.4457 66.0311 51.8467 66.0492 52.2181 65.9773ZM62.9331 62.8499C62.0631 62.8773 61.1772 62.9377 60.42 63.164C59.6611 63.3933 59.0262 63.7866 58.6091 64.5116C59.1303 65.1976 59.8753 65.5138 60.718 65.5519C61.5585 65.5914 62.4893 65.3531 63.3426 64.9765C64.196 64.5993 64.9692 64.088 65.515 63.6465C65.79 63.432 66.0079 63.2305 66.1596 63.093C66.3086 62.9504 66.3903 62.8653 66.3903 62.8653C66.3908 62.8653 65.9732 62.8579 65.3089 62.8473C64.6627 62.8433 63.8024 62.825 62.9331 62.8499ZM57.1438 63.2525C57.9721 63.296 58.6401 62.9075 59.117 62.3159C59.5933 61.7256 59.8774 60.9391 59.9922 60.1726C60.1097 59.4027 60.0702 58.6664 59.9783 58.1298C59.9362 57.8618 59.8897 57.6467 59.8465 57.4927C59.8053 57.3405 59.7786 57.2567 59.7786 57.2567C59.7786 57.2567 59.7252 57.3063 59.6387 57.3994C59.5474 57.4924 59.4192 57.6273 59.2697 57.7961C58.9621 58.1351 58.544 58.6035 58.1333 59.1529C57.7248 59.7043 57.3206 60.3348 57.0915 61.0242C56.865 61.7155 56.8063 62.4667 57.1438 63.2525ZM68.5514 59.0522C68.6374 58.9505 68.7228 58.8453 68.8051 58.7421L68.9268 58.5839L69.0229 58.4567C69.1468 58.2905 69.2627 58.1243 69.3722 57.9623C69.5895 57.6392 69.7775 57.3291 69.9329 57.0617C70.0862 56.7937 70.2058 56.5673 70.2854 56.4091C70.3628 56.2477 70.3986 56.1499 70.3986 56.1499C70.3986 56.1499 70.013 56.2598 69.416 56.4401C68.8243 56.6248 68.0446 56.8928 67.2874 57.24C67.0968 57.3277 66.9104 57.4182 66.7235 57.5187C66.5238 57.6286 66.3283 57.7397 66.1414 57.8523C65.9524 57.9649 65.7655 58.0734 65.5914 58.1914C65.4168 58.3066 65.2411 58.4193 65.0862 58.5431C64.4486 59.0276 63.976 59.585 63.7805 60.4051C64.4806 60.9169 65.3025 61.0046 66.1478 60.7393C66.9937 60.4801 67.8545 59.861 68.5514 59.0522ZM63.4777 55.6279C63.2588 54.8675 62.94 54.1808 62.6751 53.6896C62.5427 53.4424 62.4279 53.2475 62.3317 53.1073C62.242 52.97 62.1854 52.8929 62.1854 52.8929C62.186 52.8929 62.1539 52.9687 62.1016 53.1033C62.0434 53.238 61.9585 53.4304 61.8688 53.6676C61.7785 53.9041 61.6803 54.1855 61.59 54.4983C61.5035 54.8018 61.4074 55.1891 61.3823 55.4196C61.3075 55.963 61.2157 56.6103 61.2541 57.2962C61.2995 57.9776 61.4773 58.7013 62.0306 59.3612C62.8273 59.1802 63.3501 58.6008 63.5749 57.8926C63.6267 57.715 63.6737 57.5327 63.6924 57.3445C63.7084 57.1534 63.717 56.9652 63.7047 56.7744C63.6892 56.5827 63.6614 56.3945 63.6225 56.2116C63.5819 56.0152 63.5322 55.8188 63.4777 55.6279ZM72.3146 49.6817C72.3595 49.5049 72.3766 49.4016 72.3766 49.4016C72.3766 49.4016 72.0241 49.5844 71.4634 49.8779C70.9155 50.1721 70.1978 50.5816 69.5174 51.0566C68.8142 51.5255 68.1199 52.0555 67.6698 52.6652C67.5619 52.8192 67.446 52.9713 67.3542 53.1322C67.2618 53.2917 67.1854 53.4577 67.1309 53.6308C67.0188 53.9764 66.9894 54.3489 67.0594 54.7589C67.8972 54.994 68.6694 54.8127 69.3642 54.379C69.5383 54.2718 69.7054 54.1479 69.8683 54.0138C70.0306 53.8778 70.1935 53.7331 70.3307 53.569C70.6138 53.2473 70.8733 52.8876 71.1051 52.5199C71.5878 51.7921 71.8789 50.9962 72.0861 50.404C72.1886 50.1051 72.2666 49.8566 72.3146 49.6817ZM65.0568 54.0835C65.3911 53.8558 65.6309 53.569 65.7948 53.2488C65.8771 53.0899 65.9385 52.9191 65.9839 52.7463C66.0282 52.5706 66.0608 52.3919 66.0597 52.2029C66.064 51.4531 65.8424 50.6653 65.5017 49.9658C65.1396 49.2603 64.6942 48.6533 64.3391 48.2292C64.1618 48.0153 64.0107 47.8478 63.89 47.732C63.7715 47.6167 63.7036 47.5538 63.7036 47.5538C63.7036 47.5536 63.6849 47.6308 63.663 47.7683C63.6326 47.9041 63.5872 48.1004 63.5445 48.3416C63.4537 48.8213 63.4089 49.4787 63.3629 50.1787C63.3501 50.5278 63.3629 50.8944 63.4105 51.2596C63.4254 51.3526 63.4393 51.443 63.4532 51.5328C63.4649 51.6233 63.4777 51.7125 63.4948 51.8016C63.529 51.9804 63.5744 52.1587 63.6321 52.3302C63.8633 53.0209 64.2969 53.6568 65.0568 54.0835ZM70.4461 44.528C70.3046 44.6801 70.1663 44.837 70.0328 44.9964C69.9019 45.1565 69.77 45.3173 69.636 45.4795C69.3786 45.8056 69.1565 46.1408 68.9962 46.4817C68.9145 46.6532 68.8531 46.8275 68.7987 47.0017C68.7394 47.1766 68.6983 47.3521 68.678 47.5316C68.6358 47.89 68.6785 48.2605 68.8275 48.6478C69.6974 48.7262 70.4199 48.4026 71.0191 47.8364C71.1681 47.6978 71.3096 47.5417 71.4431 47.3742C71.5729 47.2053 71.6818 47.0251 71.7907 46.8368C72.0049 46.4582 72.1854 46.0489 72.3402 45.6356C72.4225 45.4298 72.4748 45.2195 72.5266 45.0125C72.5763 44.8053 72.6206 44.6017 72.6601 44.4055C72.7343 44.0088 72.8 43.6395 72.8235 43.3207C72.862 42.6827 72.8497 42.2628 72.8497 42.2628C72.8497 42.2628 72.5314 42.5234 72.0802 42.9408C71.645 43.3568 71.0154 43.9157 70.4461 44.528ZM67.3125 47.2462C67.3616 47.076 67.3899 46.9005 67.4001 46.7229C67.4044 46.5435 67.3787 46.3619 67.3445 46.1782C67.273 45.8157 67.1405 45.4559 66.9681 45.1103C66.9248 45.0245 66.8794 44.9394 66.8319 44.8556C66.7806 44.7705 66.7235 44.6894 66.6669 44.6078C66.5526 44.4429 66.4308 44.2876 66.308 44.1354C66.0565 43.8372 65.7922 43.5666 65.5364 43.3307C65.4103 43.2128 65.279 43.1044 65.1476 43.0052C65.0184 42.9053 64.8945 42.8155 64.7797 42.7344C64.321 42.4121 63.9979 42.2393 63.9979 42.2393C63.9979 42.2393 63.9936 42.5443 64.0459 43.0105C64.0625 43.1264 64.0684 43.2536 64.0769 43.3898C64.0871 43.5243 64.1009 43.6671 64.1196 43.8179C64.1517 44.1159 64.2238 44.4389 64.2878 44.7732C64.3466 45.1069 64.4331 45.448 64.5554 45.7857C64.6168 45.9545 64.6862 46.1207 64.7679 46.2855C64.8373 46.4483 64.9153 46.609 65.0066 46.7632C65.3708 47.3782 65.9235 47.9149 66.7534 48.1937C67.0359 47.9109 67.2158 47.588 67.3125 47.2462ZM68.8686 40.2058C68.78 40.5749 68.7533 40.9362 68.8115 41.2919C68.8382 41.4701 68.8964 41.6431 68.9583 41.8178C69.0203 41.992 69.1057 42.165 69.2189 42.3352C70.0803 42.2159 70.7473 41.7341 71.1585 41.0433C71.3705 40.6977 71.5376 40.3017 71.6669 39.8829C71.7822 39.4628 71.8388 39.022 71.8789 38.5831C71.8959 38.3633 71.9104 38.1422 71.9114 37.9292C71.9056 37.7169 71.8938 37.5091 71.8789 37.3087C71.8463 36.9066 71.8025 36.534 71.7539 36.2173C71.6236 35.593 71.5013 35.1904 71.5013 35.1904C71.5013 35.1904 71.2626 35.5225 70.9347 36.0363C70.7761 36.2888 70.5865 36.5895 70.3772 36.9214C70.1743 37.2525 69.9639 37.6069 69.7711 37.9721C69.5858 38.3332 69.3829 38.7132 69.2221 39.0869C69.0582 39.4641 68.9423 39.8367 68.8686 40.2058ZM67.2137 40.0973C67.0572 39.7649 66.8244 39.4535 66.5649 39.1654C66.4356 39.0226 66.2979 38.8852 66.1532 38.7559C66.0111 38.6268 65.8445 38.5088 65.6854 38.3962C65.0392 37.9472 64.3877 37.6257 63.8457 37.4367C63.3186 37.243 62.9614 37.1594 62.9614 37.1594C62.9614 37.1592 63.0356 37.4515 63.2081 37.8817C63.2839 38.0993 63.3672 38.3567 63.4863 38.6294C63.5424 38.7654 63.607 38.9067 63.678 39.0501C63.748 39.194 63.8067 39.3435 63.8831 39.493C64.0272 39.7896 64.2077 40.092 64.4123 40.3814C64.5981 40.6728 64.8192 40.9516 65.0787 41.2015C65.6159 41.6966 66.2439 42.0879 67.1176 42.1676C67.2265 42.0001 67.3093 41.8286 67.367 41.6558C67.4241 41.4801 67.4369 41.3068 67.4396 41.1297C67.4407 40.7806 67.3568 40.431 67.2137 40.0973ZM68.4035 28.7609C68.4035 28.7609 68.2604 29.1299 68.0574 29.7071C67.8545 30.2849 67.6265 31.0406 67.4124 31.8459C67.3093 32.2469 67.2372 32.649 67.1753 33.049C67.1112 33.4522 67.0829 33.8447 67.1128 34.2153C67.1315 34.3968 67.1448 34.5832 67.1811 34.7578C67.218 34.9362 67.2703 35.1065 67.3435 35.2699C67.415 35.4307 67.508 35.5882 67.6244 35.7367C67.7312 35.8862 67.8572 36.0314 68.0105 36.1676C68.4147 36.0015 68.7405 35.7644 68.9989 35.4702C69.2617 35.1728 69.4245 34.8289 69.5468 34.4433C69.6056 34.25 69.6504 34.0492 69.6825 33.8409C69.7145 33.6332 69.7369 33.4169 69.7321 33.2049C69.731 32.7772 69.6851 32.3345 69.613 31.9041C69.4389 31.056 69.1597 30.2491 68.8846 29.6863C68.7527 29.4022 68.6337 29.1678 68.5498 29.0054C68.4601 28.8484 68.4035 28.7609 68.4035 28.7609ZM65.8092 34.7509C65.727 34.5934 65.6325 34.4417 65.5075 34.305C65.264 34.0262 64.9692 33.7806 64.6494 33.5659C64.3252 33.3544 63.9525 33.1857 63.592 33.0442C63.4105 32.9732 63.2294 32.9101 63.0521 32.8567C62.8743 32.8001 62.6885 32.7574 62.5155 32.7195C62.1641 32.641 61.8415 32.5913 61.566 32.5572C61.2894 32.523 61.0635 32.5059 60.8958 32.5011C60.7308 32.4925 60.6368 32.4941 60.6368 32.4941C60.6368 32.4941 60.6768 32.5598 60.7511 32.6752C60.8226 32.7905 60.9203 32.9566 61.0517 33.1488C61.1185 33.2466 61.1911 33.3491 61.2728 33.4602C61.315 33.5125 61.3561 33.5702 61.401 33.6263C61.4416 33.6839 61.4832 33.7432 61.5275 33.8041C61.7016 34.0449 61.9083 34.298 62.1411 34.5464C62.3558 34.7989 62.5988 35.0489 62.8711 35.2769C62.9395 35.3356 63.0116 35.389 63.0804 35.4456C63.1477 35.5006 63.2161 35.554 63.2876 35.6074C63.4286 35.7121 63.5781 35.8093 63.7346 35.8958C64.0475 36.0704 64.4021 36.205 64.7653 36.2856C65.1305 36.3625 65.5289 36.3834 65.9593 36.3118C66.0196 36.1254 66.0554 35.9401 66.065 35.758C66.065 35.5813 66.0426 35.4061 65.9978 35.2384C65.9545 35.0697 65.8899 34.9063 65.8092 34.7509ZM65.2635 30.5391C65.9598 30.0291 66.2824 29.3141 66.3347 28.5152C66.3534 28.1195 66.3091 27.7035 66.2204 27.2859C66.1259 26.8715 65.9748 26.4657 65.8071 26.0684C65.6368 25.6743 65.4248 25.3117 65.2245 24.9726C65.0243 24.6351 64.8037 24.3467 64.6195 24.0984C64.4352 23.8469 64.2654 23.6546 64.1442 23.5201C64.023 23.3881 63.9552 23.3134 63.9552 23.3134C63.9552 23.3129 63.8873 23.7069 63.8232 24.2976C63.7875 24.5966 63.7501 24.9464 63.7229 25.3218C63.7068 25.5082 63.6956 25.7015 63.6871 25.8991C63.6764 26.0977 63.6657 26.3033 63.662 26.5079C63.654 27.3206 63.6903 28.1606 63.9146 28.8655C64.0187 29.2238 64.1741 29.5491 64.3984 29.8273C64.6115 30.114 64.8897 30.3549 65.2635 30.5391ZM62.4001 29.1208C61.8025 28.6877 61.0186 28.4298 60.2384 28.3187C59.8561 28.2573 59.4684 28.2365 59.109 28.2338C58.7512 28.2322 58.4265 28.2466 58.1456 28.2717C57.5812 28.3283 57.2186 28.4036 57.2186 28.4036C57.2186 28.4036 57.2693 28.4613 57.3681 28.5606C57.4637 28.6605 57.61 28.794 57.7793 28.9611C57.9496 29.1288 58.1664 29.3114 58.3982 29.5106C58.6273 29.7109 58.8932 29.9138 59.1747 30.1114C59.4486 30.3127 59.753 30.5028 60.0729 30.6678C60.3837 30.8376 60.718 30.9807 61.0699 31.0758C61.7646 31.2734 62.5256 31.3033 63.3314 30.9594C63.3507 30.5717 63.2695 30.2187 63.1071 29.9074C62.9373 29.6062 62.6911 29.3419 62.4001 29.1208ZM13.8454 23.3171L18.3538 26.3733L18.8552 26.5799C18.9086 26.6024 18.9452 26.6435 18.9613 26.6985C18.9772 26.754 18.9679 26.8085 18.9345 26.8555L18.2335 27.8413C18.1992 27.8893 18.1494 27.916 18.0904 27.9182C18.0315 27.9198 17.9798 27.8963 17.9426 27.8509L17.6084 27.4413L12.2921 23.9302C12.2166 23.8805 12.1889 23.7849 12.2262 23.7027L13.7504 20.3266L13.9638 19.7745C13.9849 19.72 14.0259 19.6821 14.0819 19.6655C14.1378 19.6484 14.1929 19.6575 14.2405 19.6917L15.1149 20.3133C15.197 20.3715 15.2163 20.4863 15.158 20.5686L14.9125 20.9135L13.8454 23.3171ZM22.8567 22.4371L17.3108 21.3642C17.2361 21.3498 17.1808 21.2943 17.1661 21.22L16.2689 16.6729C16.2574 16.6152 16.2725 16.5597 16.3121 16.5154C16.3517 16.4716 16.4048 16.4502 16.464 16.4556L21.3694 16.8743C21.446 16.8807 21.5075 16.9309 21.5293 17.0045L23.0669 22.2053C23.0856 22.2683 23.0711 22.3313 23.0269 22.3805C22.9827 22.4291 22.9212 22.4493 22.8567 22.4371ZM24.701 12.246L23.5863 15.4719L27.5132 15.9141L28.0537 15.8954C28.1106 15.8933 28.1603 15.9146 28.1977 15.9573C28.2352 16.0001 28.2501 16.0524 28.2405 16.1085L28.0498 17.2379C28.0403 17.2945 28.0088 17.3388 27.9589 17.3671C27.9089 17.3949 27.8544 17.3986 27.8013 17.3773L27.3372 17.1909L22.0591 16.6158C22.0019 16.6094 21.9552 16.58 21.9244 16.5314C21.8936 16.4828 21.8872 16.4283 21.906 16.3739L23.4792 11.8198L23.5485 11.4091C23.5653 11.3104 23.6591 11.2431 23.7582 11.2591L24.8668 11.4385C24.9274 11.4487 24.9751 11.4839 25.002 11.5395C25.0289 11.5945 25.0273 11.6537 24.9977 11.7077L24.701 12.246ZM30.5934 15.5248L27.9598 11.4684L27.1775 12.0051L26.7861 12.4222C26.7363 12.4756 26.6647 12.4937 26.5955 12.4708C26.5263 12.4483 26.4796 12.3912 26.471 12.3186L26.3429 11.2377C26.3324 11.1491 26.3858 11.0674 26.4713 11.0418L26.8425 10.9285L29.6343 8.9858L30.0166 8.57354C30.0662 8.51961 30.1382 8.50092 30.2077 8.52388C30.2772 8.54684 30.3242 8.60398 30.3326 8.67661L30.4558 9.74784C30.4657 9.83488 30.4151 9.91444 30.3323 9.94221L29.9549 10.0693L29.0128 10.7432L31.6793 14.8167L32.0521 15.2508C32.0899 15.2946 32.1041 15.3486 32.0929 15.4052C32.0817 15.4623 32.0484 15.5066 31.9968 15.5328L31.0511 16.0172C30.9614 16.0631 30.8508 16.0273 30.8048 15.9376L30.5934 15.5248ZM36.3945 13.3802C35.6251 12.9626 34.8591 12.5391 34.097 12.1082C33.4015 11.7151 32.7023 11.3285 31.9982 10.951C31.9093 10.9029 31.8758 10.7918 31.9233 10.7032L34.1459 6.55817L34.2744 6.05673C34.2885 6.0012 34.3235 5.95954 34.3754 5.93552C34.4271 5.91202 34.4815 5.91255 34.5327 5.93819L35.5594 6.4455C35.6101 6.4706 35.6436 6.51279 35.6565 6.56779C35.6694 6.62279 35.6582 6.67566 35.6239 6.72051L35.3031 7.14131L34.0656 9.55987L35.279 9.06163L35.7392 8.76579C35.7882 8.73428 35.8436 8.72787 35.8986 8.74709C35.9535 8.76632 35.9927 8.80583 36.0114 8.86084L36.3958 9.99669C36.4143 10.0517 36.4076 10.1062 36.3763 10.1548C36.3451 10.2033 36.298 10.2317 36.2406 10.2375L35.6997 10.2915L34.3387 10.701L36.9984 12.2331L37.4742 12.3576C37.529 12.372 37.5704 12.4067 37.5941 12.4585C37.6178 12.5098 37.6173 12.5637 37.5925 12.615L37.0883 13.6515C37.063 13.7033 37.0198 13.7375 36.9636 13.7503C36.9074 13.7626 36.8539 13.7503 36.8089 13.714L36.3945 13.3802ZM41.0455 8.82133L42.7192 10.1788C42.7633 10.2146 42.7867 10.2632 42.7868 10.3203C42.787 10.3769 42.7639 10.426 42.7199 10.4618C42.3761 10.7443 42.0276 11.0204 41.6758 11.2922C41.3078 11.5763 40.9385 11.8588 40.5676 12.1392C40.2032 12.4147 39.839 12.6908 39.475 12.9669C39.139 13.2221 38.8009 13.4747 38.4599 13.723C38.4054 13.7631 38.3385 13.77 38.277 13.7423C38.2154 13.7145 38.1764 13.66 38.1701 13.5927L37.3591 4.9588C37.3527 4.89045 37.3817 4.82903 37.4382 4.79059C37.4946 4.75214 37.5626 4.74733 37.6237 4.77831L42.0876 7.03131C42.1373 7.05641 42.17 7.09753 42.183 7.15199C42.1961 7.20593 42.1857 7.25773 42.153 7.30259L41.0455 8.82133ZM45.9033 13.0272L42.9741 8.19759C42.9346 8.13245 42.9383 8.05448 42.9837 7.99361L45.7502 4.27526C45.7857 4.22774 45.8366 4.2021 45.896 4.20157C45.9554 4.20157 46.0066 4.22667 46.0426 4.27366L49.0265 8.18958C49.0731 8.25099 49.0772 8.33003 49.0372 8.39571L46.216 13.0277C46.1817 13.0838 46.1253 13.1153 46.0595 13.1153C45.9938 13.1153 45.9374 13.0838 45.9033 13.0272ZM51.0497 10.1147L55.7607 5.12167C55.8184 5.0608 55.9065 5.04639 55.9802 5.0859C56.0544 5.12542 56.0913 5.20658 56.072 5.28828L54.5074 12.0697L54.47 12.5973C54.4657 12.6523 54.4406 12.6983 54.3963 12.7314C54.3514 12.7639 54.3002 12.7746 54.2462 12.7623L53.0778 12.4927C53.021 12.4793 52.9775 12.4441 52.953 12.3912C52.9284 12.3383 52.9296 12.2823 52.9564 12.2305L53.1998 11.7589L53.8292 9.03012L49.3681 13.7887C49.3116 13.8491 49.2251 13.864 49.1515 13.8266C49.0777 13.7887 49.0393 13.7102 49.055 13.6285L50.3752 6.78726L50.3533 6.25272C50.3507 6.1897 50.3776 6.13417 50.429 6.09679C50.4803 6.05994 50.5416 6.05193 50.6008 6.07436L51.703 6.49036C51.7509 6.50851 51.7855 6.54162 51.806 6.58861C51.8265 6.63507 51.8271 6.68314 51.8078 6.73066L51.6143 7.20753L51.0497 10.1147ZM54.2735 4.21545L54.8139 3.66862C54.8598 3.62217 54.9212 3.60455 54.9853 3.61897L55.7335 3.79145C55.7981 3.8064 55.8461 3.85072 55.8664 3.91427C55.8867 3.97729 55.8734 4.04137 55.8291 4.09103L52.5993 7.75009C52.5442 7.81257 52.4575 7.83019 52.3826 7.79388C52.3076 7.75757 52.2674 7.67854 52.282 7.59682L52.956 3.83364C52.9652 3.78184 52.9925 3.74072 53.0365 3.71242L54.141 2.99577C54.2025 2.95625 54.2772 2.95572 54.3392 2.99524C54.4011 3.03475 54.4321 3.10257 54.4219 3.17519L54.2735 4.21545ZM63.3891 9.10275L65.4114 14.3425C65.4306 14.3927 65.428 14.4434 65.4034 14.4915C65.3788 14.5395 65.3393 14.571 65.2875 14.5849L59.3429 16.1656C59.2702 16.1854 59.1966 16.1603 59.1506 16.1005C59.1047 16.0406 59.0999 15.9632 59.1373 15.8975L63.0596 9.07712C63.0954 9.01463 63.16 8.98046 63.2321 8.98633C63.3042 8.99167 63.3629 9.03493 63.3891 9.10275ZM65.0643 20.4345L65.8717 14.8439C65.8824 14.7686 65.9353 14.7104 66.009 14.6923L70.5075 13.5794C70.5652 13.565 70.6207 13.5778 70.6672 13.6152C70.7131 13.6525 70.7366 13.7043 70.7345 13.7636L70.5502 18.6835C70.547 18.7604 70.5 18.8245 70.4274 18.8496L65.3057 20.6332C65.2437 20.6551 65.1796 20.6433 65.1289 20.6017C65.0782 20.56 65.0552 20.4997 65.0643 20.4345ZM68.1349 22.0419L75.3542 18.5826C75.4263 18.5478 75.5086 18.5628 75.5641 18.6199C75.6196 18.6771 75.6324 18.7593 75.5961 18.8309L73.7399 22.4654L77.3707 22.3484C77.4481 22.3457 77.5154 22.389 77.5453 22.46C77.5752 22.5311 77.5592 22.6096 77.5036 22.663L72.7189 27.2651L72.3488 27.7137C72.3119 27.7574 72.2623 27.7804 72.2051 27.7799C72.148 27.7793 72.0989 27.7553 72.0636 27.7099L71.4073 26.8747C71.3448 26.7957 71.3587 26.6803 71.4378 26.6179L71.803 26.3311L74.5137 23.739L71.9013 23.825C71.8345 23.8271 71.7763 23.7961 71.7405 23.7401C71.7048 23.6834 71.7016 23.6178 71.7325 23.5585L72.9597 21.1693L68.6838 23.2146L68.3608 23.4682C68.2812 23.5307 68.1659 23.5168 68.1039 23.4378L67.3435 22.4702C67.3029 22.4184 67.2927 22.3548 67.3157 22.2934C67.3381 22.232 67.3873 22.1904 67.4513 22.1775L68.1349 22.0419ZM18.2999 20.2348L21.2939 20.8041L20.5049 18.0934L17.824 17.8761L18.2999 20.2348ZM40.3187 7.59897L38.8485 6.86256L39.2646 11.4519L40.8011 10.3139L39.3839 9.14921C39.3086 9.08726 39.295 8.97726 39.3532 8.89929L40.3187 7.59897ZM44.4751 8.1725L46.0638 10.7726L47.5423 8.36794L45.903 6.23563L44.4751 8.1725ZM61.5767 14.2261L63.7506 13.6632L63.0089 11.7354L61.5767 14.2261ZM67.0466 15.7779L66.621 18.7956L69.2905 17.8782L69.3797 15.19L67.0466 15.7779ZM22.8004 79.3746L22.5797 79.8532L23.8939 80.8939L24.1213 79.8067L28.0348 69.2643L16.5315 75.4398C17.1819 75.5851 17.6915 75.6917 18.0603 75.7594C18.5261 75.838 18.9728 75.9113 19.4007 75.9795C19.8285 76.0476 20.251 76.1183 20.6684 76.1914C21.0856 76.2644 21.5062 76.3335 21.9299 76.3984C22.3537 76.4634 22.7944 76.5319 23.252 76.604C23.4171 76.629 23.5967 76.6855 23.791 76.7734L22.8004 79.3746ZM20.654 74.7843L25.4919 72.2004L24.303 75.377C24.1379 75.352 23.8864 75.3112 23.5484 75.2547C23.2103 75.1981 22.8537 75.1401 22.4784 75.0807C22.1032 75.0211 21.7451 74.9651 21.4038 74.9126C21.0625 74.8602 20.8127 74.8174 20.654 74.7843ZM34.4826 80.4194L35.119 79.9474L38.157 78.49L35.7558 74.1302L35.916 73.66L35.4211 73.5242L35.2566 73.911L30.4384 75.8771L31.9551 78.8861L32.1709 79.6483L33.0576 79.1634L31.5544 83.095L31.1228 83.7843L32.7831 84.3498L34.0222 79.5083L34.4826 80.4194ZM34.0989 76.0581L33.3282 78.3208L32.3671 76.6653L34.0989 76.0581ZM35.1471 76.3989L36.1482 77.9368L34.3918 78.5684L35.1471 76.3989ZM42.1678 82.9841L42.0981 77.6574L42.3065 76.6528L40.522 76.6136L40.7217 77.4098L40.8683 87.722L46.4079 78.6524L46.2946 83.8198L46.0755 84.6068L47.8446 84.6456L47.7378 83.8514L47.9634 73.563L42.1678 82.9841ZM52.4675 84.1736L52.4765 84.9943L53.9835 84.5629L53.7955 83.9064L52.9945 80.2609L56.6904 78.5088L57.6687 82.604L57.7013 83.4504L59.4027 82.9636L59.0054 82.2537L57.1086 74.3853L57.0808 73.5536L55.3794 74.0406L55.7719 74.7354L56.3487 77.0891L52.6868 78.8475L52.0628 75.9909L52.0305 75.1444L50.5084 75.58L50.6963 76.2367L52.4675 84.1736ZM70.1951 77.116L70.5924 77.4626L71.9611 76.4946L70.9817 75.9704L61.9681 69.2463L64.6542 82.0232C64.9773 81.44 65.2229 80.981 65.3917 80.6462C65.5983 80.2214 65.7943 79.8133 65.9801 79.422C66.166 79.0307 66.3529 78.6452 66.5403 78.2653C66.7283 77.8855 66.9131 77.5014 67.0946 77.1131C67.2762 76.7248 67.4658 76.3213 67.6639 75.9024C67.7344 75.7511 67.839 75.5946 67.9784 75.4329L70.1951 77.116ZM65.1861 77.8827L64.0694 72.5131L66.7828 74.5486C66.7123 74.6997 66.6023 74.9296 66.4527 75.2381C66.3032 75.5465 66.1473 75.8723 65.9844 76.2157C65.8215 76.5589 65.6672 76.8868 65.5204 77.1995C65.374 77.5122 65.263 77.7399 65.1861 77.8827Z" fill="#5EB701"/>
<path fill-rule="evenodd" clip-rule="evenodd" d="M45.0206 0.0163193C69.8561 0.0163193 89.9887 20.1495 89.9887 44.9845C89.9887 69.8197 69.8561 89.9526 45.0206 89.9526C20.1855 89.9526 0.0526123 69.8197 0.0526123 44.9845C0.0526123 20.1495 20.1855 0.0163193 45.0206 0.0163193ZM45.0206 1.41804C69.0815 1.41804 88.587 20.9235 88.587 44.9845C88.587 69.0457 69.0815 88.5511 45.0206 88.5511C20.9596 88.5511 1.45415 69.0457 1.45415 44.9845C1.45415 20.9235 20.9596 1.41804 45.0206 1.41804Z" fill="#5EB701"/>
<path d="M45.0206 0.0163159C69.8561 0.0163159 89.9887 20.1495 89.9887 44.9845C89.9887 69.8197 69.8561 89.9526 45.0206 89.9526C20.1855 89.9526 0.0526123 69.8197 0.0526123 44.9845C0.0526123 20.1495 20.1855 0.0163159 45.0206 0.0163159Z" stroke="#0075DA" stroke-width="0.288" stroke-miterlimit="22.9256"/>
</g>
<defs>
<clipPath id="clip0">
<rect width="90" height="90" fill="white"/>
</clipPath>
</defs>
</svg>
