<svg width="30" height="30" viewBox="0 0 30 30" fill="none" xmlns="http://www.w3.org/2000/svg">
<path d="M28.5 7.5C29.3285 7.5 30 6.82852 30 6V1.5C30 0.671484 29.3285 0 28.5 0H24C23.1715 0 22.5 0.671484 22.5 1.5V2.8125H7.5V1.5C7.5 0.671484 6.82852 0 6 0H1.5C0.671484 0 0 0.671484 0 1.5V6C0 6.82852 0.671484 7.5 1.5 7.5H2.8125V22.5H1.5C0.671484 22.5 0 23.1715 0 24V28.5C0 29.3285 0.671484 30 1.5 30H6C6.82852 30 7.5 29.3285 7.5 28.5V27.1875H22.5V28.5C22.5 29.3285 23.1715 30 24 30H28.5C29.3285 30 30 29.3285 30 28.5V24C30 23.1715 29.3285 22.5 28.5 22.5H27.1875V7.5H28.5ZM24.375 1.875H28.125V5.625H24.375V1.875ZM1.875 5.625V1.875H5.625V5.625H1.875ZM5.625 28.125H1.875V24.375H5.625V28.125ZM28.125 24.375V28.125H24.375V24.375H28.125ZM25.3125 22.5H24C23.1715 22.5 22.5 23.1715 22.5 24V25.3125H7.5V24C7.5 23.1715 6.82852 22.5 6 22.5H4.6875V7.5H6C6.82852 7.5 7.5 6.82852 7.5 6V4.6875H22.5V6C22.5 6.82852 23.1715 7.5 24 7.5H25.3125V22.5Z" fill="#A0DB63"/>
</svg>
