<svg width="48" height="30" viewBox="0 0 48 30" fill="none" xmlns="http://www.w3.org/2000/svg">
<path d="M37.3397 0H10.3073V0.91834H37.3397V0Z" fill="#A0DB63"/>
<path d="M11.377 1.31641V2.2348H12.7625V6.90314H14.2212V2.2348H23.0942V15.1226H24.5528V2.2348H33.4258V15.1226H34.8844V2.2348H36.27V1.31641H11.377Z" fill="#A0DB63"/>
<path d="M38.3283 26.8128V23.1198C39.1608 22.9311 39.7578 22.429 39.7578 21.8406C39.7578 21.2523 39.1608 20.7501 38.3283 20.5615V17.755H36.8697V20.5614C36.0373 20.7501 35.4403 21.2522 35.4403 21.8406C35.4403 22.4289 36.0373 22.9311 36.8697 23.1197V26.8127H31.4405V23.1197C32.273 22.931 32.87 22.4289 32.87 21.8406C32.87 21.2522 32.273 20.7501 31.4405 20.5614V16.8685H40.4999V15.9502H7.14697V16.8686H9.31864V20.5615C8.48621 20.7503 7.88922 21.2524 7.88922 21.8407C7.88922 22.429 8.48621 22.9312 9.31864 23.1199V26.8128H7.14697V27.272C7.14697 28.7762 9.09054 29.9999 11.4797 29.9999H36.1674C38.5564 29.9999 40.5 28.7762 40.5 27.2719V26.8127H38.3283V26.8128ZM37.5989 21.3998C37.9849 21.3998 38.299 21.5975 38.299 21.8406C38.299 22.0836 37.9849 22.2814 37.5989 22.2814C37.2129 22.2814 36.8988 22.0836 36.8988 21.8406C36.8989 21.5976 37.213 21.3998 37.5989 21.3998ZM30.7112 21.3998C31.0972 21.3998 31.4113 21.5976 31.4113 21.8406C31.4113 22.0836 31.0972 22.2814 30.7112 22.2814C30.3252 22.2814 30.0111 22.0836 30.0111 21.8406C30.0111 21.5975 30.3251 21.3998 30.7112 21.3998ZM24.5528 23.1198C25.3852 22.9311 25.9822 22.429 25.9822 21.8406C25.9822 21.2523 25.3852 20.7501 24.5528 20.5615V16.8685H29.9819V20.5614C29.1495 20.7501 28.5525 21.2522 28.5525 21.8406C28.5525 22.4289 29.1495 22.9311 29.9819 23.1197V26.8127H24.5528V23.1198ZM23.8234 21.3998C24.2095 21.3998 24.5235 21.5975 24.5235 21.8406C24.5235 22.0836 24.2095 22.2814 23.8234 22.2814C23.4374 22.2814 23.1233 22.0836 23.1233 21.8406C23.1233 21.5975 23.4374 21.3998 23.8234 21.3998ZM17.665 23.1198C18.4974 22.9311 19.0944 22.429 19.0944 21.8406C19.0944 21.2523 18.4974 20.7501 17.665 20.5615V16.8685H23.0942V20.5614C22.2618 20.7501 21.6648 21.2522 21.6648 21.8406C21.6648 22.4289 22.2618 22.9311 23.0942 23.1197V26.8127H17.665V23.1198ZM16.9357 21.3998C17.3218 21.3998 17.6358 21.5976 17.6358 21.8406C17.6358 22.0836 17.3218 22.2814 16.9357 22.2814C16.5497 22.2814 16.2356 22.0836 16.2356 21.8406C16.2356 21.5975 16.5497 21.3998 16.9357 21.3998ZM10.7773 23.1199C11.6097 22.9311 12.2067 22.429 12.2067 21.8407C12.2067 21.2524 11.6097 20.7502 10.7773 20.5615V16.8686H16.2064V20.5615C15.374 20.7503 14.777 21.2524 14.777 21.8407C14.777 22.429 15.374 22.9312 16.2064 23.1199V26.8128H10.7773V23.1199ZM10.048 21.3998C10.434 21.3998 10.748 21.5975 10.748 21.8406C10.748 22.0836 10.434 22.2814 10.048 22.2814C9.66194 22.2814 9.34786 22.0836 9.34786 21.8406C9.34786 21.5975 9.66194 21.3998 10.048 21.3998ZM36.1673 29.0816H11.4797C10.1468 29.0816 9.02298 28.5074 8.69932 27.7312H38.9476C38.624 28.5073 37.5002 29.0816 36.1673 29.0816Z" fill="#A0DB63"/>
<path d="M14.2211 7.97461H12.7626V8.89295H14.2211V7.97461Z" fill="#A0DB63"/>
<path d="M14.2211 9.99512H12.7626V15.1226H14.2211V9.99512Z" fill="#A0DB63"/>
<path d="M19.1028 5.74096L15.4772 9.00122L16.6721 9.52801L20.2977 6.26776L19.1028 5.74096Z" fill="#A0DB63"/>
<path d="M20.5048 7.37036L16.8792 10.6306L18.0741 11.1574L21.6997 7.89715L20.5048 7.37036Z" fill="#A0DB63"/>
<path d="M29.574 5.74024L25.9484 9.00049L27.1433 9.52728L30.7689 6.26703L29.574 5.74024Z" fill="#A0DB63"/>
<path d="M30.9786 7.37085L27.3529 10.6311L28.5478 11.1579L32.1735 7.89764L30.9786 7.37085Z" fill="#A0DB63"/>
</svg>
