<svg width="38" height="30" viewBox="0 0 38 30" fill="none" xmlns="http://www.w3.org/2000/svg">
<g clip-path="url(#clip0)">
<path d="M33.5455 11.3613V9.38672C33.5455 6.27539 31.0412 3.75 27.9545 3.75H9.31818C6.23153 3.75 3.72727 6.27539 3.72727 9.38672V11.3613C1.60156 11.8008 0 13.6934 0 15.9668C0 17.4375 0.704688 18.8262 1.86364 19.7051V24.3691C1.86364 25.4062 2.69645 26.25 3.72727 26.25H7.45455C8.46207 26.25 9.27742 25.3887 9.30653 24.375H27.9662C27.9953 25.3887 28.8107 26.25 29.8182 26.25H33.5455C34.5763 26.25 35.4091 25.4062 35.4091 24.3691V19.7051C36.568 18.8203 37.2727 17.4375 37.2727 15.9668C37.2727 13.6992 35.6712 11.8008 33.5455 11.3613ZM7.45455 24.3691H3.72727V18.6621C2.73139 18.0762 1.86364 17.4258 1.86364 15.9668C1.86364 14.4141 3.11577 13.1484 4.65909 13.1484H6.52273C7.03523 13.1484 7.45455 13.5703 7.45455 14.0859V24.3691ZM27.9545 22.5H9.31818V16.9043H27.9545V22.5ZM27.9545 14.0859V15H9.31818V14.0859C9.31818 12.5332 8.06605 11.2676 6.52273 11.2676H5.59091V9.38672C5.59091 7.3125 7.26236 5.63086 9.31818 5.63086H27.9545C30.0104 5.63086 31.6818 7.31836 31.6818 9.38672V11.2676H30.75C29.2067 11.2676 27.9545 12.5332 27.9545 14.0859ZM33.5455 18.6621V24.3691H29.8182V14.0859C29.8182 13.5703 30.2375 13.1484 30.75 13.1484H32.6136C34.157 13.1484 35.4091 14.4141 35.4091 15.9668C35.4091 17.3672 34.5996 18.041 33.5455 18.6621Z" fill="#A0DB63"/>
</g>
<defs>
<clipPath id="clip0">
<rect width="37.2727" height="30" fill="white"/>
</clipPath>
</defs>
</svg>
