<svg width="15" height="15" viewBox="0 0 15 15" fill="none" xmlns="http://www.w3.org/2000/svg">
<path d="M14.446 10.2917L11.2705 8.92944C11.088 8.85161 10.8852 8.83496 10.6925 8.88196C10.4997 8.92896 10.3274 9.03709 10.2012 9.19018L8.90919 10.7693C6.87701 9.76979 5.23289 8.12567 4.23341 6.0935L5.81251 4.80151C5.96558 4.67536 6.07369 4.50306 6.1207 4.31035C6.1677 4.11765 6.15105 3.91492 6.07325 3.73246L4.71094 0.553752C4.62576 0.356638 4.47416 0.195629 4.28253 0.098742C4.09089 0.00185482 3.87136 -0.0247777 3.66212 0.0234787L0.708991 0.706096C0.507127 0.751753 0.326867 0.86488 0.197968 1.0268C0.0690699 1.18872 -0.000760101 1.38976 6.24098e-06 1.59672C6.24098e-06 9.01733 6.01466 14.9997 13.403 14.9997C13.6107 15.0001 13.8123 14.9299 13.9748 14.8005C14.1372 14.6711 14.2508 14.4903 14.2969 14.2878L14.9763 11.3376C15.0245 11.1288 14.9978 10.9097 14.9009 10.7185C14.804 10.5273 14.643 10.3763 14.446 10.2917ZM13.3855 14.0622C6.51563 14.0535 0.946295 8.48705 0.940436 1.61723L3.85841 0.943401L5.20606 4.08959L3.07325 5.83276C4.49122 8.85619 6.13477 10.5056 9.16993 11.9294L10.9131 9.79662L14.0593 11.1443L13.3855 14.0622Z" fill="#5EB701"/>
</svg>
