<svg width="15" height="15" viewBox="0 0 15 15" fill="none" xmlns="http://www.w3.org/2000/svg">
<path d="M13.5938 1.875H1.40625C0.629883 1.875 0 2.50488 0 3.28125V11.7188C0 12.4951 0.629883 13.125 1.40625 13.125H13.5938C14.3701 13.125 15 12.4951 15 11.7188V3.28125C15 2.50488 14.3701 1.875 13.5938 1.875ZM1.40625 2.8125H13.5938C13.8516 2.8125 14.0625 3.02344 14.0625 3.28125V4.49414C13.4209 5.03613 12.5039 5.7832 9.65039 8.04785C9.15527 8.44043 8.17969 9.38672 7.5 9.375C6.82031 9.38672 5.8418 8.44043 5.34961 8.04785C2.49609 5.7832 1.5791 5.03613 0.9375 4.49414V3.28125C0.9375 3.02344 1.14844 2.8125 1.40625 2.8125ZM13.5938 12.1875H1.40625C1.14844 12.1875 0.9375 11.9766 0.9375 11.7188V5.71289C1.60547 6.26074 2.66016 7.10742 4.7666 8.78027C5.36719 9.26074 6.42773 10.3184 7.5 10.3125C8.56641 10.3213 9.61816 9.27246 10.2334 8.78027C12.3398 7.10742 13.3945 6.26074 14.0625 5.71289V11.7188C14.0625 11.9766 13.8516 12.1875 13.5938 12.1875Z" fill="#5EB701"/>
</svg>
