<svg width="15" height="21" viewBox="0 0 15 21" fill="none" xmlns="http://www.w3.org/2000/svg">
<path d="M7.14154 20.1916C6.11709 18.6956 5.24656 17.4464 4.50693 16.3851C3.1859 14.4896 2.28249 13.1932 1.66553 12.1599C1.19059 11.3644 0.904063 10.7538 0.732993 10.172C0.56303 9.59386 0.5 9.02011 0.5 8.28961C0.5 4.38993 3.63742 1.23486 7.5 1.23486C11.3626 1.23486 14.5 4.38993 14.5 8.28961C14.5 9.02011 14.437 9.59386 14.267 10.172C14.0959 10.7538 13.8094 11.3644 13.3345 12.1599C12.7175 13.1932 11.8141 14.4896 10.4931 16.3852C9.75346 17.4464 8.88296 18.6955 7.85855 20.1914C7.68478 20.444 7.31536 20.444 7.14154 20.1916ZM7.5 11.9374C9.50546 11.9374 11.125 10.3008 11.125 8.28961C11.125 6.27841 9.50546 4.6418 7.5 4.6418C5.49454 4.6418 3.875 6.27841 3.875 8.28961C3.875 10.3008 5.49454 11.9374 7.5 11.9374Z" stroke="#5EB701"/>
</svg>
