<svg width="30" height="30" viewBox="0 0 30 30" fill="none" xmlns="http://www.w3.org/2000/svg">
<g clip-path="url(#clip0)">
<path d="M28.3333 0H1.66667C1.22464 0 0.800716 0.197544 0.488155 0.549175C0.175595 0.900806 0 1.37772 0 1.875L0 11.25C0 11.7473 0.175595 12.2242 0.488155 12.5758C0.800716 12.9275 1.22464 13.125 1.66667 13.125H28.3333C28.7754 13.125 29.1993 12.9275 29.5118 12.5758C29.8244 12.2242 30 11.7473 30 11.25V1.875C30 1.37772 29.8244 0.900806 29.5118 0.549175C29.1993 0.197544 28.7754 0 28.3333 0V0ZM28.3333 11.25H1.66667V1.875H28.3333V11.25ZM3.75 9.375H26.25C26.3605 9.375 26.4665 9.32561 26.5446 9.23771C26.6228 9.1498 26.6667 9.03057 26.6667 8.90625V7.96875C26.6667 7.84443 26.6228 7.7252 26.5446 7.63729C26.4665 7.54939 26.3605 7.5 26.25 7.5H3.75C3.63949 7.5 3.53351 7.54939 3.45537 7.63729C3.37723 7.7252 3.33333 7.84443 3.33333 7.96875V8.90625C3.33333 9.03057 3.37723 9.1498 3.45537 9.23771C3.53351 9.32561 3.63949 9.375 3.75 9.375ZM11.6667 24.8438C11.6667 25.714 11.3594 26.5486 10.8124 27.1639C10.2654 27.7793 9.52355 28.125 8.75 28.125H7.91667C7.48176 28.1244 7.05246 28.0145 6.66011 27.8034C6.26776 27.5923 5.92225 27.2854 5.6488 26.9049C5.37535 26.5245 5.18085 26.0801 5.07951 25.6043C4.97817 25.1285 4.97253 24.6333 5.06302 24.1547C5.34219 22.6207 6.60885 21.5625 8.00052 21.5625H8.75C8.86051 21.5625 8.96649 21.5131 9.04463 21.4252C9.12277 21.3373 9.16667 21.2181 9.16667 21.0938V20.1562C9.16667 20.0319 9.12277 19.9127 9.04463 19.8248C8.96649 19.7369 8.86051 19.6875 8.75 19.6875H7.91667C7.27639 19.6882 6.64333 19.8397 6.05822 20.1322C5.47311 20.4248 4.94891 20.8518 4.51931 21.3859C4.08972 21.92 3.76426 22.5494 3.56386 23.2335C3.36346 23.9177 3.29257 24.6414 3.35573 25.3582C3.5875 28.0371 5.72917 30 8.12031 30H8.75C9.96558 30 11.1314 29.4568 11.9909 28.4898C12.8504 27.5228 13.3333 26.2113 13.3333 24.8438V15H11.6667V24.8438ZM21.8802 17.8125H21.25C21.1395 17.8125 21.0335 17.8619 20.9554 17.9498C20.8772 18.0377 20.8333 18.1569 20.8333 18.2812V19.2188C20.8333 19.3431 20.8772 19.4623 20.9554 19.5502C21.0335 19.6381 21.1395 19.6875 21.25 19.6875H22.0833C22.5182 19.6881 22.9475 19.798 23.3399 20.0091C23.7322 20.2202 24.0777 20.5271 24.3512 20.9076C24.6247 21.288 24.8191 21.7324 24.9205 22.2082C25.0218 22.684 25.0275 23.1792 24.937 23.6578C24.6578 25.1918 23.3911 26.25 21.9995 26.25H21.25C20.4765 26.25 19.7346 25.9043 19.1876 25.2889C18.6406 24.6736 18.3333 23.839 18.3333 22.9688V15H16.6667V22.9688C16.6667 24.3363 17.1496 25.6478 18.0091 26.6148C18.8686 27.5818 20.0344 28.125 21.25 28.125H22.0833C22.7236 28.1243 23.3567 27.9728 23.9418 27.6803C24.5269 27.3877 25.0511 26.9607 25.4807 26.4266C25.9103 25.8925 26.2357 25.2631 26.4361 24.579C26.6365 23.8948 26.7074 23.1711 26.6443 22.4543C26.4125 19.7754 24.2708 17.8125 21.8802 17.8125Z" fill="#A0DB63"/>
</g>
<defs>
<clipPath id="clip0">
<rect width="30" height="30" fill="white"/>
</clipPath>
</defs>
</svg>
