<svg width="22" height="22" viewBox="0 0 22 22" fill="none" xmlns="http://www.w3.org/2000/svg">
<path d="M19.519 2.14225C18.9436 1.63958 16.6148 0.0370469 11.4225 0.0155652C11.4225 0.0155652 5.30148 -0.332438 2.32023 2.26255C0.661963 3.83501 0.0774935 6.14214 0.0140627 8.9992C-0.0493681 11.8563 -0.126391 17.2095 5.31507 18.6617H5.3196L5.31507 20.8786C5.31507 20.8786 5.27882 21.7765 5.90407 21.9569C6.65618 22.1804 7.10019 21.4972 7.82059 20.7626C8.21476 20.3587 8.75846 19.7658 9.17076 19.3147C12.8951 19.6112 15.754 18.9323 16.0802 18.8335C16.8323 18.6015 21.0867 18.086 21.7754 12.7327C22.4912 7.20763 21.431 3.71901 19.519 2.14225ZM20.1488 12.3289C19.5644 16.7971 16.1164 17.0806 15.4821 17.2739C15.2103 17.3556 12.6957 17.9485 9.53775 17.7551C9.53775 17.7551 7.18175 20.4489 6.44776 21.1492C6.20763 21.3769 5.94484 21.3555 5.94938 20.9043C5.94938 20.6079 5.9675 17.2224 5.9675 17.2224C5.96297 17.2224 5.96297 17.2224 5.9675 17.2224C1.35517 16.0108 1.62702 11.4524 1.67686 9.06794C1.7267 6.68348 2.20243 4.72864 3.60697 3.41397C6.13061 1.24432 11.3274 1.56654 11.3274 1.56654C15.7177 1.58373 17.82 2.83826 18.3093 3.2593C19.9268 4.57398 20.7514 7.71889 20.1488 12.3289ZM13.851 8.85742C13.8692 9.22691 13.2847 9.25269 13.2666 8.8832C13.2167 7.93801 12.7501 7.4783 11.7895 7.42674C11.3999 7.40526 11.4361 6.85103 11.8213 6.87252C13.0853 6.93696 13.7876 7.62437 13.851 8.85742ZM14.7708 9.34291C14.8161 7.52126 13.6154 6.09488 11.3365 5.93591C10.9513 5.91014 10.9921 5.35591 11.3772 5.38169C14.0051 5.56213 15.4051 7.27637 15.3553 9.3558C15.3507 9.72528 14.7617 9.7081 14.7708 9.34291ZM16.9003 9.91862C16.9048 10.2881 16.3158 10.2924 16.3158 9.92291C16.2886 6.4214 13.8284 4.51383 10.8426 4.49235C10.4575 4.48805 10.4575 3.93812 10.8426 3.93812C14.1818 3.9596 16.8685 6.14644 16.9003 9.91862ZM16.3883 14.1333V14.1419C15.899 14.9582 14.9837 15.8604 14.0413 15.5726L14.0323 15.5597C13.0763 15.3062 10.8245 14.2064 9.40182 13.1323C8.66784 12.5823 7.99729 11.9336 7.48078 11.3106C7.01411 10.7564 6.54291 10.0991 6.0853 9.30854C5.12024 7.65445 4.9073 6.91548 4.9073 6.91548C4.60374 6.02184 5.55067 5.15398 6.41605 4.68998H6.42511C6.84194 4.48375 7.24065 4.5525 7.50796 4.85753C7.50796 4.85753 8.06978 5.49339 8.30991 5.80702C8.53645 6.09918 8.84001 6.56748 8.99859 6.82955C9.27496 7.29785 9.10279 7.77475 8.83095 7.97238L8.28726 8.38483C8.01088 8.59535 8.04712 8.98631 8.04712 8.98631C8.04712 8.98631 8.8536 11.8777 11.8666 12.6081C11.8666 12.6081 12.2789 12.6425 12.5009 12.3804L12.9358 11.8649C13.1442 11.6071 13.6472 11.4438 14.141 11.7059C14.807 12.0625 15.6543 12.6167 16.2161 13.1194C16.5333 13.3643 16.6058 13.7381 16.3883 14.1333Z" fill="#665CAC"/>
</svg>
